<mxfile host="app.diagrams.net" modified="2023-10-13T18:23:21.505Z" agent="Mozilla/5.0 (Windows NT 10.0; Win64; x64) AppleWebKit/537.36 (KHTML, like Gecko) Chrome/117.0.0.0 Safari/537.36" etag="Lti7iY3aWVgEuRT2WlyE" version="22.0.4" type="device">
  <diagram name="Page-1" id="e7e014a7-5840-1c2e-5031-d8a46d1fe8dd">
    <mxGraphModel dx="540" dy="1245" grid="1" gridSize="10" guides="1" tooltips="1" connect="1" arrows="1" fold="1" page="1" pageScale="1" pageWidth="1169" pageHeight="826" background="none" math="0" shadow="0">
      <root>
        <mxCell id="0" />
        <mxCell id="1" parent="0" />
        <mxCell id="PwDuRD21kiVpuUac7png-42" value="&lt;p style=&quot;margin:0px;margin-top:4px;text-align:center;&quot;&gt;&lt;i&gt;&amp;lt;&amp;lt;Interface&amp;gt;&amp;gt;&lt;/i&gt;&lt;br&gt;&lt;b&gt;Phone&lt;/b&gt;&lt;/p&gt;&lt;hr size=&quot;1&quot;&gt;&lt;p style=&quot;margin:0px;margin-left:4px;&quot;&gt;&lt;br&gt;&lt;/p&gt;&lt;hr size=&quot;1&quot;&gt;&lt;p style=&quot;margin:0px;margin-left:4px;&quot;&gt;&lt;br&gt;&lt;/p&gt;" style="verticalAlign=top;align=left;overflow=fill;fontSize=12;fontFamily=Helvetica;html=1;whiteSpace=wrap;" vertex="1" parent="1">
          <mxGeometry x="585" y="-780" width="245" height="190" as="geometry" />
        </mxCell>
        <mxCell id="PwDuRD21kiVpuUac7png-43" value="Iphone" style="swimlane;fontStyle=0;childLayout=stackLayout;horizontal=1;startSize=26;fillColor=none;horizontalStack=0;resizeParent=1;resizeParentMax=0;resizeLast=0;collapsible=1;marginBottom=0;whiteSpace=wrap;html=1;" vertex="1" parent="1">
          <mxGeometry x="190" y="-790" width="210" height="338" as="geometry">
            <mxRectangle x="190" y="-790" width="80" height="30" as="alternateBounds" />
          </mxGeometry>
        </mxCell>
        <mxCell id="PwDuRD21kiVpuUac7png-44" value="+ play()" style="text;strokeColor=none;fillColor=none;align=left;verticalAlign=top;spacingLeft=4;spacingRight=4;overflow=hidden;rotatable=0;points=[[0,0.5],[1,0.5]];portConstraint=eastwest;whiteSpace=wrap;html=1;" vertex="1" parent="PwDuRD21kiVpuUac7png-43">
          <mxGeometry y="26" width="210" height="26" as="geometry" />
        </mxCell>
        <mxCell id="PwDuRD21kiVpuUac7png-45" value="+ pause()" style="text;strokeColor=none;fillColor=none;align=left;verticalAlign=top;spacingLeft=4;spacingRight=4;overflow=hidden;rotatable=0;points=[[0,0.5],[1,0.5]];portConstraint=eastwest;whiteSpace=wrap;html=1;" vertex="1" parent="PwDuRD21kiVpuUac7png-43">
          <mxGeometry y="52" width="210" height="26" as="geometry" />
        </mxCell>
        <mxCell id="PwDuRD21kiVpuUac7png-46" value="+ stop()" style="text;strokeColor=none;fillColor=none;align=left;verticalAlign=top;spacingLeft=4;spacingRight=4;overflow=hidden;rotatable=0;points=[[0,0.5],[1,0.5]];portConstraint=eastwest;whiteSpace=wrap;html=1;" vertex="1" parent="PwDuRD21kiVpuUac7png-43">
          <mxGeometry y="78" width="210" height="26" as="geometry" />
        </mxCell>
        <mxCell id="PwDuRD21kiVpuUac7png-49" value="+ nextTrack()" style="text;strokeColor=none;fillColor=none;align=left;verticalAlign=top;spacingLeft=4;spacingRight=4;overflow=hidden;rotatable=0;points=[[0,0.5],[1,0.5]];portConstraint=eastwest;whiteSpace=wrap;html=1;" vertex="1" parent="PwDuRD21kiVpuUac7png-43">
          <mxGeometry y="104" width="210" height="26" as="geometry" />
        </mxCell>
        <mxCell id="PwDuRD21kiVpuUac7png-47" value="+ previousTrack()" style="text;strokeColor=none;fillColor=none;align=left;verticalAlign=top;spacingLeft=4;spacingRight=4;overflow=hidden;rotatable=0;points=[[0,0.5],[1,0.5]];portConstraint=eastwest;whiteSpace=wrap;html=1;" vertex="1" parent="PwDuRD21kiVpuUac7png-43">
          <mxGeometry y="130" width="210" height="26" as="geometry" />
        </mxCell>
        <mxCell id="PwDuRD21kiVpuUac7png-48" value="+ makeCall(String phoneNumber)" style="text;strokeColor=none;fillColor=none;align=left;verticalAlign=top;spacingLeft=4;spacingRight=4;overflow=hidden;rotatable=0;points=[[0,0.5],[1,0.5]];portConstraint=eastwest;whiteSpace=wrap;html=1;" vertex="1" parent="PwDuRD21kiVpuUac7png-43">
          <mxGeometry y="156" width="210" height="26" as="geometry" />
        </mxCell>
        <mxCell id="PwDuRD21kiVpuUac7png-50" value="+ receiveCall(String callerName)" style="text;strokeColor=none;fillColor=none;align=left;verticalAlign=top;spacingLeft=4;spacingRight=4;overflow=hidden;rotatable=0;points=[[0,0.5],[1,0.5]];portConstraint=eastwest;whiteSpace=wrap;html=1;" vertex="1" parent="PwDuRD21kiVpuUac7png-43">
          <mxGeometry y="182" width="210" height="26" as="geometry" />
        </mxCell>
        <mxCell id="PwDuRD21kiVpuUac7png-51" value="+ endCall()" style="text;strokeColor=none;fillColor=none;align=left;verticalAlign=top;spacingLeft=4;spacingRight=4;overflow=hidden;rotatable=0;points=[[0,0.5],[1,0.5]];portConstraint=eastwest;whiteSpace=wrap;html=1;" vertex="1" parent="PwDuRD21kiVpuUac7png-43">
          <mxGeometry y="208" width="210" height="26" as="geometry" />
        </mxCell>
        <mxCell id="PwDuRD21kiVpuUac7png-52" value="+ openCall()" style="text;strokeColor=none;fillColor=none;align=left;verticalAlign=top;spacingLeft=4;spacingRight=4;overflow=hidden;rotatable=0;points=[[0,0.5],[1,0.5]];portConstraint=eastwest;whiteSpace=wrap;html=1;" vertex="1" parent="PwDuRD21kiVpuUac7png-43">
          <mxGeometry y="234" width="210" height="26" as="geometry" />
        </mxCell>
        <mxCell id="PwDuRD21kiVpuUac7png-53" value="+ openURL(String url)" style="text;strokeColor=none;fillColor=none;align=left;verticalAlign=top;spacingLeft=4;spacingRight=4;overflow=hidden;rotatable=0;points=[[0,0.5],[1,0.5]];portConstraint=eastwest;whiteSpace=wrap;html=1;" vertex="1" parent="PwDuRD21kiVpuUac7png-43">
          <mxGeometry y="260" width="210" height="26" as="geometry" />
        </mxCell>
        <mxCell id="PwDuRD21kiVpuUac7png-54" value="+ browserHistory()" style="text;strokeColor=none;fillColor=none;align=left;verticalAlign=top;spacingLeft=4;spacingRight=4;overflow=hidden;rotatable=0;points=[[0,0.5],[1,0.5]];portConstraint=eastwest;whiteSpace=wrap;html=1;" vertex="1" parent="PwDuRD21kiVpuUac7png-43">
          <mxGeometry y="286" width="210" height="26" as="geometry" />
        </mxCell>
        <mxCell id="PwDuRD21kiVpuUac7png-55" value="+ search(String query)" style="text;strokeColor=none;fillColor=none;align=left;verticalAlign=top;spacingLeft=4;spacingRight=4;overflow=hidden;rotatable=0;points=[[0,0.5],[1,0.5]];portConstraint=eastwest;whiteSpace=wrap;html=1;" vertex="1" parent="PwDuRD21kiVpuUac7png-43">
          <mxGeometry y="312" width="210" height="26" as="geometry" />
        </mxCell>
        <mxCell id="PwDuRD21kiVpuUac7png-56" value="+ makeCall(String phoneNumber)" style="text;strokeColor=none;fillColor=none;align=left;verticalAlign=top;spacingLeft=4;spacingRight=4;overflow=hidden;rotatable=0;points=[[0,0.5],[1,0.5]];portConstraint=eastwest;whiteSpace=wrap;html=1;" vertex="1" parent="1">
          <mxGeometry x="585" y="-700" width="200" height="26" as="geometry" />
        </mxCell>
        <mxCell id="PwDuRD21kiVpuUac7png-57" value="+ receiveCall(String callerName)" style="text;strokeColor=none;fillColor=none;align=left;verticalAlign=top;spacingLeft=4;spacingRight=4;overflow=hidden;rotatable=0;points=[[0,0.5],[1,0.5]];portConstraint=eastwest;whiteSpace=wrap;html=1;" vertex="1" parent="1">
          <mxGeometry x="585" y="-674" width="210" height="26" as="geometry" />
        </mxCell>
        <mxCell id="PwDuRD21kiVpuUac7png-58" value="+ endCall()" style="text;strokeColor=none;fillColor=none;align=left;verticalAlign=top;spacingLeft=4;spacingRight=4;overflow=hidden;rotatable=0;points=[[0,0.5],[1,0.5]];portConstraint=eastwest;whiteSpace=wrap;html=1;" vertex="1" parent="1">
          <mxGeometry x="585" y="-648" width="210" height="26" as="geometry" />
        </mxCell>
        <mxCell id="PwDuRD21kiVpuUac7png-59" value="" style="endArrow=block;dashed=1;endFill=0;endSize=12;html=1;rounded=0;exitX=1.008;exitY=0.027;exitDx=0;exitDy=0;exitPerimeter=0;entryX=0;entryY=0;entryDx=0;entryDy=0;" edge="1" parent="1" source="PwDuRD21kiVpuUac7png-43" target="PwDuRD21kiVpuUac7png-42">
          <mxGeometry width="160" relative="1" as="geometry">
            <mxPoint x="430" y="-700" as="sourcePoint" />
            <mxPoint x="590" y="-700" as="targetPoint" />
          </mxGeometry>
        </mxCell>
        <mxCell id="PwDuRD21kiVpuUac7png-60" value="&lt;p style=&quot;margin:0px;margin-top:4px;text-align:center;&quot;&gt;&lt;i&gt;&amp;lt;&amp;lt;Interface&amp;gt;&amp;gt;&lt;/i&gt;&lt;br&gt;&lt;b&gt;MusicPlayer&lt;/b&gt;&lt;/p&gt;&lt;hr size=&quot;1&quot;&gt;&lt;p style=&quot;margin:0px;margin-left:4px;&quot;&gt;&lt;br&gt;&lt;/p&gt;&lt;hr size=&quot;1&quot;&gt;&lt;p style=&quot;margin:0px;margin-left:4px;&quot;&gt;&lt;br&gt;&lt;/p&gt;" style="verticalAlign=top;align=left;overflow=fill;fontSize=12;fontFamily=Helvetica;html=1;whiteSpace=wrap;" vertex="1" parent="1">
          <mxGeometry x="585" y="-530" width="245" height="210" as="geometry" />
        </mxCell>
        <mxCell id="PwDuRD21kiVpuUac7png-64" value="+ play()" style="text;strokeColor=none;fillColor=none;align=left;verticalAlign=top;spacingLeft=4;spacingRight=4;overflow=hidden;rotatable=0;points=[[0,0.5],[1,0.5]];portConstraint=eastwest;whiteSpace=wrap;html=1;" vertex="1" parent="1">
          <mxGeometry x="585" y="-460" width="210" height="26" as="geometry" />
        </mxCell>
        <mxCell id="PwDuRD21kiVpuUac7png-65" value="+ pause()" style="text;strokeColor=none;fillColor=none;align=left;verticalAlign=top;spacingLeft=4;spacingRight=4;overflow=hidden;rotatable=0;points=[[0,0.5],[1,0.5]];portConstraint=eastwest;whiteSpace=wrap;html=1;" vertex="1" parent="1">
          <mxGeometry x="585" y="-434" width="210" height="26" as="geometry" />
        </mxCell>
        <mxCell id="PwDuRD21kiVpuUac7png-66" value="+ stop()" style="text;strokeColor=none;fillColor=none;align=left;verticalAlign=top;spacingLeft=4;spacingRight=4;overflow=hidden;rotatable=0;points=[[0,0.5],[1,0.5]];portConstraint=eastwest;whiteSpace=wrap;html=1;" vertex="1" parent="1">
          <mxGeometry x="585" y="-408" width="210" height="26" as="geometry" />
        </mxCell>
        <mxCell id="PwDuRD21kiVpuUac7png-67" value="+ nextTrack()" style="text;strokeColor=none;fillColor=none;align=left;verticalAlign=top;spacingLeft=4;spacingRight=4;overflow=hidden;rotatable=0;points=[[0,0.5],[1,0.5]];portConstraint=eastwest;whiteSpace=wrap;html=1;" vertex="1" parent="1">
          <mxGeometry x="585" y="-382" width="210" height="26" as="geometry" />
        </mxCell>
        <mxCell id="PwDuRD21kiVpuUac7png-68" value="+ previousTrack()" style="text;strokeColor=none;fillColor=none;align=left;verticalAlign=top;spacingLeft=4;spacingRight=4;overflow=hidden;rotatable=0;points=[[0,0.5],[1,0.5]];portConstraint=eastwest;whiteSpace=wrap;html=1;" vertex="1" parent="1">
          <mxGeometry x="585" y="-356" width="210" height="26" as="geometry" />
        </mxCell>
        <mxCell id="PwDuRD21kiVpuUac7png-69" value="&lt;p style=&quot;margin:0px;margin-top:4px;text-align:center;&quot;&gt;&lt;i&gt;&amp;lt;&amp;lt;Interface&amp;gt;&amp;gt;&lt;/i&gt;&lt;br&gt;&lt;b&gt;InternetBrowser &lt;/b&gt;&lt;br&gt;&lt;/p&gt;&lt;hr size=&quot;1&quot;&gt;&lt;p style=&quot;margin:0px;margin-left:4px;&quot;&gt;&lt;br&gt;&lt;/p&gt;&lt;hr size=&quot;1&quot;&gt;&lt;p style=&quot;margin:0px;margin-left:4px;&quot;&gt;&lt;br&gt;&lt;/p&gt;" style="verticalAlign=top;align=left;overflow=fill;fontSize=12;fontFamily=Helvetica;html=1;whiteSpace=wrap;" vertex="1" parent="1">
          <mxGeometry x="585" y="-260" width="245" height="160" as="geometry" />
        </mxCell>
        <mxCell id="PwDuRD21kiVpuUac7png-70" value="+ openURL(String url)" style="text;strokeColor=none;fillColor=none;align=left;verticalAlign=top;spacingLeft=4;spacingRight=4;overflow=hidden;rotatable=0;points=[[0,0.5],[1,0.5]];portConstraint=eastwest;whiteSpace=wrap;html=1;" vertex="1" parent="1">
          <mxGeometry x="585" y="-190" width="210" height="26" as="geometry" />
        </mxCell>
        <mxCell id="PwDuRD21kiVpuUac7png-71" value="+ browserHistory()" style="text;strokeColor=none;fillColor=none;align=left;verticalAlign=top;spacingLeft=4;spacingRight=4;overflow=hidden;rotatable=0;points=[[0,0.5],[1,0.5]];portConstraint=eastwest;whiteSpace=wrap;html=1;" vertex="1" parent="1">
          <mxGeometry x="585" y="-164" width="210" height="26" as="geometry" />
        </mxCell>
        <mxCell id="PwDuRD21kiVpuUac7png-72" value="+ search(String query)" style="text;strokeColor=none;fillColor=none;align=left;verticalAlign=top;spacingLeft=4;spacingRight=4;overflow=hidden;rotatable=0;points=[[0,0.5],[1,0.5]];portConstraint=eastwest;whiteSpace=wrap;html=1;" vertex="1" parent="1">
          <mxGeometry x="585" y="-138" width="210" height="26" as="geometry" />
        </mxCell>
        <mxCell id="PwDuRD21kiVpuUac7png-73" value="" style="endArrow=block;dashed=1;endFill=0;endSize=12;html=1;rounded=0;entryX=0.045;entryY=-0.023;entryDx=0;entryDy=0;entryPerimeter=0;" edge="1" parent="1" source="PwDuRD21kiVpuUac7png-43" target="PwDuRD21kiVpuUac7png-69">
          <mxGeometry width="160" relative="1" as="geometry">
            <mxPoint x="320" y="-410" as="sourcePoint" />
            <mxPoint x="470" y="-410" as="targetPoint" />
          </mxGeometry>
        </mxCell>
        <mxCell id="PwDuRD21kiVpuUac7png-74" value="" style="endArrow=block;dashed=1;endFill=0;endSize=12;html=1;rounded=0;exitX=1.005;exitY=0.048;exitDx=0;exitDy=0;exitPerimeter=0;" edge="1" parent="1" target="PwDuRD21kiVpuUac7png-60">
          <mxGeometry width="160" relative="1" as="geometry">
            <mxPoint x="399.99999999999994" y="-639.996" as="sourcePoint" />
            <mxPoint x="583.95" y="-396.22" as="targetPoint" />
          </mxGeometry>
        </mxCell>
      </root>
    </mxGraphModel>
  </diagram>
</mxfile>
